<svg width="21" height="24" viewBox="0 0 21 24" fill="none" xmlns="http://www.w3.org/2000/svg">
<path d="M3.96964 23.1328C2.79191 23.1328 1.89835 22.8311 1.28898 22.2275C0.685463 21.6299 0.383705 20.7451 0.383705 19.5732V7.77832C0.383705 6.6123 0.685463 5.73047 1.28898 5.13281C1.89835 4.5293 2.79191 4.22754 3.96964 4.22754H17.039C18.2109 4.22754 19.0985 4.5293 19.7021 5.13281C20.3114 5.73633 20.6161 6.61816 20.6161 7.77832V19.5732C20.6161 20.7393 20.3232 21.624 19.7372 22.2275C19.1513 22.8311 18.331 23.1328 17.2763 23.1328H3.96964ZM5.95597 4.70215C5.95597 3.85254 6.15226 3.08496 6.54484 2.39941C6.94328 1.71387 7.48527 1.17187 8.17081 0.773438C8.85636 0.375 9.63273 0.175781 10.4999 0.175781C11.3671 0.175781 12.1435 0.375 12.829 0.773438C13.5146 1.17187 14.0536 1.71387 14.4462 2.39941C14.8446 3.08496 15.0439 3.85254 15.0439 4.70215L13.163 4.71094C13.163 4.17188 13.0487 3.69141 12.8202 3.26953C12.5976 2.84766 12.287 2.5166 11.8886 2.27637C11.4902 2.03613 11.0273 1.91602 10.4999 1.91602C9.97843 1.91602 9.51554 2.03613 9.11124 2.27637C8.71281 2.5166 8.39933 2.84766 8.17081 3.26953C7.94816 3.69141 7.83683 4.17188 7.83683 4.71094L5.95597 4.70215Z" fill="#30D158"/>
</svg>
