<svg width="32" height="32" viewBox="0 0 32 32" fill="none" xmlns="http://www.w3.org/2000/svg">
<g clip-path="url(#clip0_13510_997)">
<path d="M8.17236 16.9116H15.1118V23.8428H16.8882V16.9116H23.8276V15.127H16.8882V8.1958H15.1118V15.127H8.17236V16.9116ZM10.9863 23.8345C10.0677 23.8345 9.36768 23.5965 8.88623 23.1206C8.41032 22.6502 8.17236 21.9613 8.17236 21.0537V10.9683C8.17236 10.0607 8.41032 9.36898 8.88623 8.89307C9.36768 8.41715 10.0677 8.1792 10.9863 8.1792H21.0137C21.9323 8.1792 22.6296 8.41715 23.1055 8.89307C23.5869 9.36898 23.8276 10.0607 23.8276 10.9683V21.0537C23.8276 21.9613 23.5869 22.6502 23.1055 23.1206C22.6296 23.5965 21.9323 23.8345 21.0137 23.8345H10.9863Z" fill="black"/>
</g>
<defs>
<clipPath id="clip0_13510_997">
<rect width="32" height="32" fill="white"/>
</clipPath>
</defs>
</svg>
