<svg width="28" height="24" viewBox="0 0 28 24" fill="none" xmlns="http://www.w3.org/2000/svg">
<path d="M3.80534 23.5283C2.67448 23.5283 1.81901 23.2383 1.23893 22.6582C0.658852 22.084 0.368813 21.2373 0.368813 20.1182V8.34082C0.368813 7.22168 0.658852 6.375 1.23893 5.80078C1.81901 5.22656 2.67448 4.93945 3.80534 4.93945H22.3063C23.443 4.93945 24.2985 5.22949 24.8727 5.80957C25.4528 6.38379 25.7428 7.22754 25.7428 8.34082V9.94922H21.5505C20.6188 9.94922 19.8131 10.1309 19.1335 10.4941C18.4596 10.8516 17.9381 11.3525 17.569 11.9971C17.1999 12.6416 17.0153 13.3799 17.0153 14.2119C17.0153 15.0498 17.1999 15.7881 17.569 16.4268C17.944 17.0654 18.4684 17.5664 19.1423 17.9297C19.8161 18.2871 20.6188 18.4658 21.5505 18.4658H25.7428V20.1182C25.7428 21.2314 25.4528 22.0781 24.8727 22.6582C24.2985 23.2383 23.443 23.5283 22.3063 23.5283H3.80534ZM21.3571 15.4336C21.6911 15.4336 21.9782 15.3164 22.2184 15.082C22.4587 14.8418 22.5788 14.5547 22.5788 14.2207C22.5788 13.8809 22.4587 13.5938 22.2184 13.3594C21.9782 13.1191 21.6911 12.999 21.3571 12.999C21.0173 12.999 20.7272 13.1191 20.487 13.3594C20.2467 13.5938 20.1266 13.8809 20.1266 14.2207C20.1266 14.5547 20.2467 14.8418 20.487 15.082C20.7272 15.3164 21.0173 15.4336 21.3571 15.4336ZM21.5505 17.0068C20.9352 17.0068 20.3962 16.9014 19.9333 16.6904C19.4762 16.4736 19.1188 16.1572 18.861 15.7412C18.6032 15.3252 18.4743 14.8154 18.4743 14.2119C18.4743 13.6084 18.6032 13.0986 18.861 12.6826C19.1188 12.2607 19.4762 11.9443 19.9333 11.7334C20.3962 11.5225 20.9352 11.417 21.5505 11.417H25.7253C26.2233 11.417 26.6071 11.5605 26.8766 11.8477C27.152 12.1348 27.2897 12.5068 27.2897 12.9639V15.4512C27.2897 15.9082 27.152 16.2832 26.8766 16.5762C26.6071 16.8633 26.2233 17.0068 25.7253 17.0068H21.5505ZM7.66373 3.46289L17.4899 0.606445C18.3454 0.348633 19.0954 0.275391 19.7399 0.386719C20.3903 0.492188 20.9059 0.773438 21.2868 1.23047C21.6735 1.68164 21.8903 2.29687 21.9372 3.07617C21.9372 3.14062 21.9372 3.20508 21.9372 3.26953C21.9372 3.32813 21.9372 3.39258 21.9372 3.46289H7.66373Z" fill="#30D158"/>
</svg>
