<svg width="28" height="21" viewBox="0 0 28 21" fill="none" xmlns="http://www.w3.org/2000/svg">
<path d="M9.35904 5.19629C9.21256 5.19629 9.08951 5.14648 8.9899 5.04688C8.89615 4.94727 8.84928 4.82422 8.84928 4.67773C8.84928 4.53711 8.89615 4.41699 8.9899 4.31738C9.08951 4.21777 9.21256 4.16797 9.35904 4.16797H18.9655C19.112 4.16797 19.2321 4.21777 19.3258 4.31738C19.4196 4.41699 19.4665 4.53711 19.4665 4.67773C19.4665 4.82422 19.4196 4.94727 19.3258 5.04688C19.2321 5.14648 19.112 5.19629 18.9655 5.19629H9.35904ZM7.80338 7.79785C7.65104 7.79785 7.52506 7.74805 7.42545 7.64844C7.32584 7.54297 7.27604 7.41699 7.27604 7.27051C7.27604 7.12988 7.32584 7.00391 7.42545 6.89258C7.52506 6.78125 7.65104 6.72559 7.80338 6.72559H20.5212C20.6676 6.72559 20.7907 6.78125 20.8903 6.89258C20.9899 7.00391 21.0397 7.12988 21.0397 7.27051C21.0397 7.41699 20.9899 7.54297 20.8903 7.64844C20.7907 7.74805 20.6676 7.79785 20.5212 7.79785H7.80338ZM4.3317 20.4102C3.15396 20.4102 2.26041 20.1084 1.65104 19.5049C1.04752 18.9014 0.745762 18.0166 0.745762 16.8506V10.5752C0.745762 10.2002 0.76627 9.88379 0.807285 9.62598C0.848301 9.36816 0.918613 9.13672 1.01822 8.93164C1.11783 8.7207 1.25553 8.50098 1.43131 8.27246L5.48307 2.94629C5.87564 2.4248 6.24186 2.01758 6.5817 1.72461C6.9274 1.43164 7.30533 1.22656 7.71549 1.10938C8.12564 0.992188 8.64127 0.933594 9.26236 0.933594H19.0622C19.6715 0.933594 20.1842 0.992188 20.6003 1.10938C21.0163 1.22656 21.3913 1.43164 21.7253 1.72461C22.0651 2.01172 22.4372 2.41895 22.8415 2.94629L26.8844 8.27246C27.0661 8.50098 27.2038 8.7207 27.2975 8.93164C27.3971 9.13672 27.4674 9.36816 27.5085 9.62598C27.5553 9.88379 27.5788 10.2002 27.5788 10.5752V16.8506C27.5788 18.0166 27.2741 18.9014 26.6647 19.5049C26.0612 20.1084 25.1676 20.4102 23.984 20.4102H4.3317ZM14.1579 13.7568C14.7321 13.7568 15.236 13.6162 15.6696 13.335C16.109 13.0537 16.4518 12.6875 16.6979 12.2363C16.944 11.7852 17.0671 11.3076 17.0671 10.8037V10.7158C17.0671 10.4756 17.1374 10.2617 17.278 10.0742C17.4186 9.88672 17.6383 9.79297 17.9372 9.79297H25.0739C25.2555 9.79297 25.3639 9.73145 25.3991 9.6084C25.4401 9.48535 25.4167 9.3623 25.3288 9.23926L21.0221 3.5C20.7702 3.16602 20.4889 2.92871 20.1784 2.78809C19.8678 2.64746 19.5133 2.57715 19.1149 2.57715H9.18326C8.78482 2.57715 8.43033 2.64746 8.11979 2.78809C7.80924 2.92871 7.52799 3.16602 7.27604 3.5L2.93424 9.2832C2.85221 9.39453 2.82877 9.50879 2.86393 9.62598C2.90494 9.7373 3.00748 9.79297 3.17154 9.79297H10.3874C10.6803 9.79297 10.8971 9.88672 11.0378 10.0742C11.1842 10.2617 11.2575 10.4756 11.2575 10.7158V10.8037C11.2575 11.3076 11.3776 11.7852 11.6178 12.2363C11.8639 12.6875 12.2038 13.0537 12.6374 13.335C13.0768 13.6162 13.5837 13.7568 14.1579 13.7568Z" fill="#30D158"/>
</svg>
